G04 #@! TF.GenerationSoftware,KiCad,Pcbnew,10.0.6*
G04 #@! TF.CreationDate,2026-10-06T23:05:29-05:00*
G04 #@! TF.ProjectId,curve-tracer,63757276-652d-4747-9261-6365722e6b69,rev?*
G04 #@! TF.SameCoordinates,Original*
G04 #@! TF.FileFunction,Copper,L1,Top*
G04 #@! TF.FilePolarity,Positive*
%FSLAX46Y46*%
G04 Gerber Fmt 4.6, Leading zero omitted, Abs format (unit mm)*
G04 Created by KiCad (PCBNEW 10.0.6) date 2026-10-06 23:05:29*
%MOMM*%
%LPD*%
G01*
G04 APERTURE LIST*
G04 Aperture macros list*
%AMRoundRect*
0 Rectangle with rounded corners*
0 $1 Rounding radius*
0 $2 $3 $4 $5 $6 $7 $8 $9 X,Y pos of 4 corners*
0 Add a 4 corners polygon primitive as box body*
4,1,4,$2,$3,$4,$5,$6,$7,$8,$9,$2,$3,0*
0 Add four circle primitives for the rounded corners*
1,1,$1+$1,$2,$3*
1,1,$1+$1,$4,$5*
1,1,$1+$1,$6,$7*
1,1,$1+$1,$8,$9*
0 Add four rect primitives between the rounded corners*
20,1,$1+$1,$2,$3,$4,$5,0*
20,1,$1+$1,$4,$5,$6,$7,0*
20,1,$1+$1,$6,$7,$8,$9,0*
20,1,$1+$1,$8,$9,$2,$3,0*%
G04 Aperture macros list end*
G04 #@! TA.AperFunction,EtchedComponent*
%ADD10C,0.000000*%
G04 #@! TD*
G04 #@! TA.AperFunction,ComponentPad*
%ADD11C,2.000000*%
G04 #@! TD*
G04 #@! TA.AperFunction,SMDPad,CuDef*
%ADD12RoundRect,0.150000X-0.587500X-0.150000X0.587500X-0.150000X0.587500X0.150000X-0.587500X0.150000X0*%
G04 #@! TD*
G04 #@! TA.AperFunction,SMDPad,CuDef*
%ADD13RoundRect,0.250000X-0.262500X-0.450000X0.262500X-0.450000X0.262500X0.450000X-0.262500X0.450000X0*%
G04 #@! TD*
G04 #@! TA.AperFunction,SMDPad,CuDef*
%ADD14RoundRect,0.250000X1.425000X-0.362500X1.425000X0.362500X-1.425000X0.362500X-1.425000X-0.362500X0*%
G04 #@! TD*
G04 #@! TA.AperFunction,SMDPad,CuDef*
%ADD15RoundRect,0.200000X-0.200000X-0.275000X0.200000X-0.275000X0.200000X0.275000X-0.200000X0.275000X0*%
G04 #@! TD*
G04 #@! TA.AperFunction,ComponentPad*
%ADD16R,3.500000X3.500000*%
G04 #@! TD*
G04 #@! TA.AperFunction,ComponentPad*
%ADD17RoundRect,0.750000X-0.750000X-1.000000X0.750000X-1.000000X0.750000X1.000000X-0.750000X1.000000X0*%
G04 #@! TD*
G04 #@! TA.AperFunction,ComponentPad*
%ADD18RoundRect,0.875000X-0.875000X-0.875000X0.875000X-0.875000X0.875000X0.875000X-0.875000X0.875000X0*%
G04 #@! TD*
G04 #@! TA.AperFunction,ComponentPad*
%ADD19C,1.600000*%
G04 #@! TD*
G04 #@! TA.AperFunction,SMDPad,CuDef*
%ADD20RoundRect,0.250000X-0.362500X-1.425000X0.362500X-1.425000X0.362500X1.425000X-0.362500X1.425000X0*%
G04 #@! TD*
G04 #@! TA.AperFunction,SMDPad,CuDef*
%ADD21C,0.500000*%
G04 #@! TD*
G04 #@! TA.AperFunction,SMDPad,CuDef*
%ADD22RoundRect,0.225000X-0.375000X0.225000X-0.375000X-0.225000X0.375000X-0.225000X0.375000X0.225000X0*%
G04 #@! TD*
G04 #@! TA.AperFunction,SMDPad,CuDef*
%ADD23RoundRect,0.250000X-0.625000X0.375000X-0.625000X-0.375000X0.625000X-0.375000X0.625000X0.375000X0*%
G04 #@! TD*
G04 #@! TA.AperFunction,ComponentPad*
%ADD24R,1.710000X1.800000*%
G04 #@! TD*
G04 #@! TA.AperFunction,ComponentPad*
%ADD25O,1.710000X1.800000*%
G04 #@! TD*
G04 #@! TA.AperFunction,SMDPad,CuDef*
%ADD26RoundRect,0.250000X-1.250000X-0.550000X1.250000X-0.550000X1.250000X0.550000X-1.250000X0.550000X0*%
G04 #@! TD*
G04 #@! TA.AperFunction,SMDPad,CuDef*
%ADD27RoundRect,0.250000X0.650000X-1.000000X0.650000X1.000000X-0.650000X1.000000X-0.650000X-1.000000X0*%
G04 #@! TD*
G04 #@! TA.AperFunction,ComponentPad*
%ADD28R,1.700000X1.700000*%
G04 #@! TD*
G04 #@! TA.AperFunction,ComponentPad*
%ADD29C,1.700000*%
G04 #@! TD*
G04 #@! TA.AperFunction,SMDPad,CuDef*
%ADD30RoundRect,0.225000X-0.225000X-0.250000X0.225000X-0.250000X0.225000X0.250000X-0.225000X0.250000X0*%
G04 #@! TD*
G04 #@! TA.AperFunction,SMDPad,CuDef*
%ADD31RoundRect,0.200000X-0.275000X0.200000X-0.275000X-0.200000X0.275000X-0.200000X0.275000X0.200000X0*%
G04 #@! TD*
G04 #@! TA.AperFunction,SMDPad,CuDef*
%ADD32RoundRect,0.200000X0.200000X0.275000X-0.200000X0.275000X-0.200000X-0.275000X0.200000X-0.275000X0*%
G04 #@! TD*
G04 #@! TA.AperFunction,SMDPad,CuDef*
%ADD33RoundRect,0.225000X-0.225000X-0.375000X0.225000X-0.375000X0.225000X0.375000X-0.225000X0.375000X0*%
G04 #@! TD*
G04 #@! TA.AperFunction,SMDPad,CuDef*
%ADD34RoundRect,0.225000X-0.250000X0.225000X-0.250000X-0.225000X0.250000X-0.225000X0.250000X0.225000X0*%
G04 #@! TD*
G04 #@! TA.AperFunction,SMDPad,CuDef*
%ADD35RoundRect,0.150000X-0.825000X-0.150000X0.825000X-0.150000X0.825000X0.150000X-0.825000X0.150000X0*%
G04 #@! TD*
G04 #@! TA.AperFunction,SMDPad,CuDef*
%ADD36RoundRect,0.250000X-0.625000X0.312500X-0.625000X-0.312500X0.625000X-0.312500X0.625000X0.312500X0*%
G04 #@! TD*
G04 #@! TA.AperFunction,SMDPad,CuDef*
%ADD37RoundRect,0.225000X0.250000X-0.225000X0.250000X0.225000X-0.250000X0.225000X-0.250000X-0.225000X0*%
G04 #@! TD*
G04 #@! TA.AperFunction,ComponentPad*
%ADD38RoundRect,0.250000X1.050000X-1.050000X1.050000X1.050000X-1.050000X1.050000X-1.050000X-1.050000X0*%
G04 #@! TD*
G04 #@! TA.AperFunction,ComponentPad*
%ADD39C,2.600000*%
G04 #@! TD*
G04 #@! TA.AperFunction,SMDPad,CuDef*
%ADD40C,1.000000*%
G04 #@! TD*
G04 #@! TA.AperFunction,SMDPad,CuDef*
%ADD41RoundRect,0.150000X0.587500X0.150000X-0.587500X0.150000X-0.587500X-0.150000X0.587500X-0.150000X0*%
G04 #@! TD*
G04 #@! TA.AperFunction,SMDPad,CuDef*
%ADD42RoundRect,0.225000X0.225000X0.375000X-0.225000X0.375000X-0.225000X-0.375000X0.225000X-0.375000X0*%
G04 #@! TD*
G04 #@! TA.AperFunction,SMDPad,CuDef*
%ADD43RoundRect,0.250000X-1.425000X0.362500X-1.425000X-0.362500X1.425000X-0.362500X1.425000X0.362500X0*%
G04 #@! TD*
G04 #@! TA.AperFunction,ViaPad*
%ADD44C,0.600000*%
G04 #@! TD*
G04 #@! TA.AperFunction,Conductor*
%ADD45C,0.400000*%
G04 #@! TD*
G04 #@! TA.AperFunction,Conductor*
%ADD46C,0.250000*%
G04 #@! TD*
G04 #@! TA.AperFunction,Conductor*
%ADD47C,0.500000*%
G04 #@! TD*
G04 #@! TA.AperFunction,Conductor*
%ADD48C,0.800000*%
G04 #@! TD*
G04 #@! TA.AperFunction,Conductor*
%ADD49C,0.187400*%
G04 #@! TD*
G04 #@! TA.AperFunction,Conductor*
%ADD50C,0.200000*%
G04 #@! TD*
G04 #@! TA.AperFunction,Conductor*
%ADD51C,0.300000*%
G04 #@! TD*
G04 #@! TA.AperFunction,Conductor*
%ADD52C,0.600000*%
G04 #@! TD*
G04 APERTURE END LIST*
D10*
G04 #@! TA.AperFunction,EtchedComponent*
G36*
X70750000Y-116750000D02*
G01*
X69750000Y-116750000D01*
X69750000Y-116250000D01*
X70750000Y-116250000D01*
X70750000Y-116750000D01*
G37*
G04 #@! TD.AperFunction*
G04 #@! TA.AperFunction,EtchedComponent*
G36*
X63500000Y-91850000D02*
G01*
X62500000Y-91850000D01*
X62500000Y-91350000D01*
X63500000Y-91350000D01*
X63500000Y-91850000D01*
G37*
G04 #@! TD.AperFunction*
D11*
X71200000Y-69800000D03*
X78600000Y-57500000D03*
D12*
X65342500Y-69050000D03*
X65342500Y-70950000D03*
X67217500Y-70000000D03*
D11*
X88000000Y-83500000D03*
D13*
X89087500Y-101000000D03*
X90912500Y-101000000D03*
D11*
X84000000Y-122400000D03*
X60500000Y-113500000D03*
D14*
X92000000Y-79962500D03*
X92000000Y-74037500D03*
D15*
X87475000Y-113200000D03*
X89125000Y-113200000D03*
D11*
X74000000Y-88600000D03*
D15*
X75175000Y-81500000D03*
X76825000Y-81500000D03*
D13*
X73587500Y-101000000D03*
X75412500Y-101000000D03*
D16*
X54500000Y-52000000D03*
D17*
X48500000Y-52000000D03*
D18*
X51500000Y-56700000D03*
D13*
X57587500Y-101000000D03*
X59412500Y-101000000D03*
D15*
X100175000Y-95880000D03*
X101825000Y-95880000D03*
D19*
X58300000Y-62000000D03*
X58300000Y-74700000D03*
D20*
X56537500Y-94000000D03*
X62462500Y-94000000D03*
D12*
X98662500Y-85650000D03*
X98662500Y-87550000D03*
X100537500Y-86600000D03*
D21*
X69750000Y-116500000D03*
X70750000Y-116500000D03*
D12*
X98662500Y-98350000D03*
X98662500Y-100250000D03*
X100537500Y-99300000D03*
D22*
X52900000Y-42750000D03*
X52900000Y-46050000D03*
D11*
X58500000Y-79000000D03*
X72700000Y-84600000D03*
D15*
X84675000Y-79800000D03*
X86325000Y-79800000D03*
D23*
X64000000Y-83100000D03*
X64000000Y-85900000D03*
D24*
X64000000Y-58000000D03*
D25*
X66280000Y-58000000D03*
X68560000Y-58000000D03*
D26*
X47300000Y-62500000D03*
X51700000Y-62500000D03*
D27*
X56000000Y-118000000D03*
X56000000Y-114000000D03*
D28*
X43200000Y-70000000D03*
D29*
X43200000Y-72540000D03*
D30*
X86525000Y-106090000D03*
X88075000Y-106090000D03*
D31*
X88000000Y-74175000D03*
X88000000Y-75825000D03*
D28*
X168670000Y-50160000D03*
D29*
X171210000Y-50160000D03*
X168670000Y-52700000D03*
X171210000Y-52700000D03*
X168670000Y-55240000D03*
X171210000Y-55240000D03*
X168670000Y-57780000D03*
X171210000Y-57780000D03*
X168670000Y-60320000D03*
X171210000Y-60320000D03*
X168670000Y-62860000D03*
X171210000Y-62860000D03*
X168670000Y-65400000D03*
X171210000Y-65400000D03*
X168670000Y-67940000D03*
X171210000Y-67940000D03*
X168670000Y-70480000D03*
X171210000Y-70480000D03*
X168670000Y-73020000D03*
X171210000Y-73020000D03*
X168670000Y-75560000D03*
X171210000Y-75560000D03*
X168670000Y-78100000D03*
X171210000Y-78100000D03*
X168670000Y-80640000D03*
X171210000Y-80640000D03*
X168670000Y-83180000D03*
X171210000Y-83180000D03*
X168670000Y-85720000D03*
X171210000Y-85720000D03*
X168670000Y-88260000D03*
X171210000Y-88260000D03*
X168670000Y-90800000D03*
X171210000Y-90800000D03*
X168670000Y-93340000D03*
X171210000Y-93340000D03*
X168670000Y-95880000D03*
X171210000Y-95880000D03*
D11*
X60000000Y-121000000D03*
D31*
X77200000Y-75475000D03*
X77200000Y-77125000D03*
D13*
X57587500Y-98000000D03*
X59412500Y-98000000D03*
D11*
X42600000Y-106500000D03*
X100500000Y-79800000D03*
D32*
X89125000Y-111600000D03*
X87475000Y-111600000D03*
D11*
X60300000Y-85000000D03*
X92000000Y-70500000D03*
D33*
X53350000Y-126000000D03*
X56650000Y-126000000D03*
D34*
X66280000Y-60825000D03*
X66280000Y-62375000D03*
D13*
X73587500Y-98500000D03*
X75412500Y-98500000D03*
D28*
X64000000Y-129500000D03*
D29*
X61460000Y-129500000D03*
D31*
X88000000Y-77575000D03*
X88000000Y-79225000D03*
D13*
X89087500Y-98500000D03*
X90912500Y-98500000D03*
D35*
X79525000Y-106095000D03*
X79525000Y-107365000D03*
X79525000Y-108635000D03*
X79525000Y-109905000D03*
X84475000Y-109905000D03*
X84475000Y-108635000D03*
X84475000Y-107365000D03*
X84475000Y-106095000D03*
D30*
X86525000Y-71090000D03*
X88075000Y-71090000D03*
D11*
X73500000Y-114000000D03*
X94000000Y-95500000D03*
X85500000Y-116200000D03*
X100500000Y-92500000D03*
X67000000Y-114000000D03*
X102500000Y-70000000D03*
D15*
X100175000Y-83180000D03*
X101825000Y-83180000D03*
D30*
X75605000Y-72330000D03*
X77155000Y-72330000D03*
D36*
X61500000Y-69537500D03*
X61500000Y-72462500D03*
D31*
X55400000Y-44575000D03*
X55400000Y-46225000D03*
D30*
X86525000Y-90090000D03*
X88075000Y-90090000D03*
D37*
X103200000Y-86175000D03*
X103200000Y-84625000D03*
D35*
X79525000Y-71095000D03*
X79525000Y-72365000D03*
X79525000Y-73635000D03*
X79525000Y-74905000D03*
X84475000Y-74905000D03*
X84475000Y-73635000D03*
X84475000Y-72365000D03*
X84475000Y-71095000D03*
D21*
X63500000Y-91600000D03*
X62500000Y-91600000D03*
D11*
X62000000Y-64500000D03*
D38*
X47000000Y-124000000D03*
D39*
X47000000Y-119000000D03*
X47000000Y-114000000D03*
D11*
X80500000Y-82000000D03*
D40*
X75300000Y-76300000D03*
D28*
X107710000Y-50160000D03*
D29*
X110250000Y-50160000D03*
X107710000Y-52700000D03*
X110250000Y-52700000D03*
X107710000Y-55240000D03*
X110250000Y-55240000D03*
X107710000Y-57780000D03*
X110250000Y-57780000D03*
X107710000Y-60320000D03*
X110250000Y-60320000D03*
X107710000Y-62860000D03*
X110250000Y-62860000D03*
X107710000Y-65400000D03*
X110250000Y-65400000D03*
X107710000Y-67940000D03*
X110250000Y-67940000D03*
X107710000Y-70480000D03*
X110250000Y-70480000D03*
X107710000Y-73020000D03*
X110250000Y-73020000D03*
X107710000Y-75560000D03*
X110250000Y-75560000D03*
X107710000Y-78100000D03*
X110250000Y-78100000D03*
X107710000Y-80640000D03*
X110250000Y-80640000D03*
X107710000Y-83180000D03*
X110250000Y-83180000D03*
X107710000Y-85720000D03*
X110250000Y-85720000D03*
X107710000Y-88260000D03*
X110250000Y-88260000D03*
X107710000Y-90800000D03*
X110250000Y-90800000D03*
X107710000Y-93340000D03*
X110250000Y-93340000D03*
X107710000Y-95880000D03*
X110250000Y-95880000D03*
D11*
X67000000Y-96500000D03*
X80000000Y-127600000D03*
X95500000Y-106000000D03*
D19*
X69000000Y-73500000D03*
X69000000Y-86200000D03*
D14*
X71000000Y-66462500D03*
X71000000Y-60537500D03*
D41*
X50537500Y-45850000D03*
X50537500Y-43950000D03*
X48662500Y-44900000D03*
D40*
X48700000Y-41800000D03*
D19*
X75000000Y-69900000D03*
X75000000Y-57200000D03*
D42*
X67930000Y-66000000D03*
X64630000Y-66000000D03*
D28*
X50500000Y-102000000D03*
D29*
X53040000Y-102000000D03*
X50500000Y-104540000D03*
X53040000Y-104540000D03*
X50500000Y-107080000D03*
X53040000Y-107080000D03*
D43*
X64000000Y-74537500D03*
X64000000Y-80462500D03*
D11*
X53500000Y-68500000D03*
D15*
X75555000Y-73900000D03*
X77205000Y-73900000D03*
D11*
X74000000Y-104000000D03*
D28*
X50500000Y-92000000D03*
D29*
X53040000Y-92000000D03*
X50500000Y-94540000D03*
X53040000Y-94540000D03*
X50500000Y-97080000D03*
X53040000Y-97080000D03*
D37*
X103200000Y-98875000D03*
X103200000Y-97325000D03*
D35*
X79525000Y-90095000D03*
X79525000Y-91365000D03*
X79525000Y-92635000D03*
X79525000Y-93905000D03*
X84475000Y-93905000D03*
X84475000Y-92635000D03*
X84475000Y-91365000D03*
X84475000Y-90095000D03*
D44*
X92947800Y-78129000D03*
X97820000Y-80007000D03*
X96168000Y-81599100D03*
X97825800Y-82175200D03*
X97813800Y-64742400D03*
X96189300Y-63117900D03*
X71750000Y-116500000D03*
X77200000Y-78400000D03*
X101324100Y-85198200D03*
X75355600Y-102250900D03*
X88075000Y-107290000D03*
X88075000Y-91290000D03*
X76825000Y-80505000D03*
X86488300Y-78813300D03*
X99507000Y-97546700D03*
X81021200Y-93661700D03*
X88075000Y-72290000D03*
X68750000Y-116500000D03*
X66280000Y-63600000D03*
X52282000Y-63830600D03*
X55400000Y-47700000D03*
X56651600Y-124859100D03*
X56000000Y-112000000D03*
X57587500Y-102250000D03*
X97809600Y-97480800D03*
X96169700Y-98002600D03*
X56537500Y-96000000D03*
X91200000Y-90000000D03*
X86479999Y-88600000D03*
X57587500Y-99250000D03*
X66500000Y-110500000D03*
D45*
X71000000Y-66462500D02*
X71000000Y-68500000D01*
X73600000Y-68500000D02*
X75000000Y-69900000D01*
D46*
X71000000Y-68500000D02*
X71200000Y-69800000D01*
D45*
X78200000Y-69900000D02*
X79525000Y-71095000D01*
X75000000Y-69900000D02*
X78200000Y-69900000D01*
X71000000Y-68500000D02*
X73600000Y-68500000D01*
D46*
X75000000Y-57200000D02*
X78600000Y-57500000D01*
D45*
X68560000Y-66000000D02*
X68560000Y-70000000D01*
D47*
X68560000Y-58000000D02*
X68560000Y-61000000D01*
D45*
X71000000Y-60537500D02*
X73000000Y-59000000D01*
D47*
X68560000Y-61000000D02*
X71000000Y-60537500D01*
D45*
X73000000Y-59000000D02*
X75000000Y-57200000D01*
D47*
X68560000Y-66000000D02*
X67930000Y-66000000D01*
D45*
X68560000Y-70000000D02*
X67217500Y-70000000D01*
D47*
X68560000Y-61000000D02*
X68560000Y-66000000D01*
D48*
X64000000Y-58000000D02*
X64000000Y-63000000D01*
D45*
X60300000Y-60000000D02*
X58300000Y-62000000D01*
D48*
X64000000Y-63000000D02*
X64000000Y-66000000D01*
D46*
X64000000Y-63000000D02*
X62000000Y-64500000D01*
D45*
X64000000Y-68000000D02*
X65342500Y-69050000D01*
X64000000Y-58000000D02*
X60300000Y-60000000D01*
X64000000Y-66000000D02*
X64000000Y-68000000D01*
D48*
X64000000Y-68000000D02*
X61500000Y-69537500D01*
X64000000Y-66000000D02*
X64629999Y-66000000D01*
D45*
X66000000Y-74539999D02*
X69000000Y-73500000D01*
X58300000Y-74700000D02*
X61000000Y-74539999D01*
D46*
X65342500Y-70950000D02*
X67000000Y-72330000D01*
D45*
X65342500Y-70950000D02*
X65340000Y-73000000D01*
D46*
X67000000Y-72330000D02*
X75605000Y-72330000D01*
D45*
X61000000Y-74539999D02*
X64000000Y-74537500D01*
X65340000Y-73000000D02*
X64000000Y-74537500D01*
D46*
X75605000Y-72330000D02*
X75555000Y-73900000D01*
D48*
X61500000Y-72462500D02*
X62500000Y-73600000D01*
X62500000Y-73600000D02*
X64000000Y-74537500D01*
D45*
X64000000Y-74537500D02*
X66000000Y-74539999D01*
D46*
X58300000Y-74700000D02*
X58500000Y-79000000D01*
X111429500Y-82609200D02*
X110730300Y-81910000D01*
X91106900Y-83500000D02*
X88000000Y-83500000D01*
X101710100Y-78453300D02*
X99373700Y-78453300D01*
X84475000Y-74905000D02*
X84675000Y-75105000D01*
X110730300Y-81910000D02*
X105166800Y-81910000D01*
X88000000Y-83500000D02*
X84675000Y-80175000D01*
X94031500Y-79212700D02*
X94031500Y-80575400D01*
X94031500Y-80575400D02*
X91106900Y-83500000D01*
X84675000Y-75105000D02*
X84675000Y-79800000D01*
X99373700Y-78453300D02*
X97820000Y-80007000D01*
X84675000Y-80175000D02*
X84675000Y-79800000D01*
X110250000Y-88260000D02*
X111429500Y-87080500D01*
X111429500Y-87080500D02*
X111429500Y-82609200D01*
X92947800Y-78129000D02*
X94031500Y-79212700D01*
X105166800Y-81910000D02*
X101710100Y-78453300D01*
X72631800Y-104562700D02*
X73971800Y-105902700D01*
D49*
X78880800Y-106720800D02*
X79525000Y-107365000D01*
D46*
X72900000Y-102775000D02*
X72631800Y-103043200D01*
X90912500Y-98500000D02*
X90912500Y-99175000D01*
X77855000Y-101000000D02*
X75757400Y-103097600D01*
X75757400Y-103097600D02*
X75100000Y-103097600D01*
X74766100Y-102718700D02*
X74580200Y-102532800D01*
D49*
X78203200Y-106720800D02*
X78880800Y-106720800D01*
D46*
X73971800Y-105902700D02*
X77385100Y-105902700D01*
D49*
X74766100Y-102763700D02*
X74766100Y-102718700D01*
X73350900Y-102775000D02*
X72900000Y-102775000D01*
D46*
X74580200Y-102532800D02*
X73593100Y-102532800D01*
X77385100Y-105902700D02*
X78203200Y-106720800D01*
D49*
X75100000Y-103097600D02*
X74766100Y-102763700D01*
X73593100Y-102532800D02*
X73350900Y-102775000D01*
D46*
X89087500Y-101000000D02*
X77855000Y-101000000D01*
X90912500Y-99175000D02*
X89087500Y-101000000D01*
X72631800Y-103043200D02*
X72631800Y-104562700D01*
X74000000Y-104000000D02*
X77430000Y-104000000D01*
X79525000Y-106095000D02*
X83358900Y-102261100D01*
X89651400Y-102261100D02*
X90912500Y-101000000D01*
D49*
X96281500Y-95576600D02*
X96281500Y-95258100D01*
D46*
X77430000Y-104000000D02*
X79525000Y-106095000D01*
D49*
X90143500Y-89579800D02*
X90143500Y-89983700D01*
D46*
X96167900Y-81599100D02*
X96168000Y-81599100D01*
X83358900Y-102261100D02*
X89651400Y-102261100D01*
X96149600Y-95126200D02*
X92627100Y-91603700D01*
X100175000Y-83180000D02*
X99170200Y-82175200D01*
X96281500Y-95631000D02*
X96281500Y-95576600D01*
D49*
X90143500Y-89983700D02*
X90524800Y-90365000D01*
X91849000Y-91603700D02*
X90792800Y-90547500D01*
D46*
X96167900Y-83555400D02*
X96167900Y-81599100D01*
X90143500Y-89579800D02*
X96167900Y-83555400D01*
D49*
X96281500Y-95258100D02*
X96149600Y-95126200D01*
X90792800Y-90547500D02*
X90750000Y-90547500D01*
D46*
X90750000Y-90547500D02*
X90707300Y-90547500D01*
X92627100Y-91603700D02*
X91849000Y-91603700D01*
X90912500Y-101000000D02*
X96281500Y-95631000D01*
X90707300Y-90547500D02*
X90524800Y-90365000D01*
X99170200Y-82175200D02*
X97825800Y-82175200D01*
X91500000Y-113200000D02*
X89125000Y-113200000D01*
X91500000Y-124200000D02*
X91500000Y-113200000D01*
X84000000Y-124200000D02*
X84000000Y-122400000D01*
X61460000Y-129500000D02*
X61460000Y-124200000D01*
X84000000Y-124200000D02*
X91500000Y-124200000D01*
X61460000Y-124200000D02*
X84000000Y-124200000D01*
D45*
X56000000Y-119000000D02*
X56000000Y-118000000D01*
D46*
X63500000Y-113500000D02*
X60500000Y-113500000D01*
D48*
X63500000Y-94000000D02*
X63500000Y-98000000D01*
X63500000Y-101000000D02*
X59412500Y-101000000D01*
X63500000Y-98000000D02*
X59412500Y-98000000D01*
X63500000Y-101000000D02*
X63500000Y-113500000D01*
X63500000Y-117000000D02*
X61500000Y-119000000D01*
X63500000Y-98000000D02*
X63500000Y-101000000D01*
X56000000Y-119000000D02*
X47000000Y-119000000D01*
X63500000Y-113500000D02*
X63500000Y-117000000D01*
X62462500Y-94000000D02*
X63500000Y-94000000D01*
D46*
X62500000Y-91600000D02*
X62500000Y-92600000D01*
D48*
X61500000Y-119000000D02*
X56000000Y-119000000D01*
D46*
X88000000Y-74175000D02*
X88000000Y-73890000D01*
X92000000Y-78777900D02*
X92000000Y-79962500D01*
X88610000Y-73890000D02*
X92000000Y-77280000D01*
X92000000Y-77280000D02*
X92000000Y-78777900D01*
X92000000Y-70500000D02*
X88610000Y-73890000D01*
X88000000Y-73890000D02*
X87119200Y-73009200D01*
D49*
X87119200Y-73009200D02*
X85119200Y-73009200D01*
D46*
X88610000Y-73890000D02*
X88000000Y-73890000D01*
D49*
X85119200Y-73009200D02*
X84475000Y-72365000D01*
X40878500Y-106652600D02*
X41010400Y-106784500D01*
D46*
X60000000Y-121000000D02*
X58350000Y-121000000D01*
X40878500Y-100363900D02*
X40878500Y-106334100D01*
D49*
X80637200Y-83418500D02*
X80543900Y-83325200D01*
D46*
X90420500Y-84826700D02*
X82045400Y-84826700D01*
X51350000Y-124000000D02*
X53350000Y-126000000D01*
D49*
X49324800Y-91917600D02*
X46659500Y-94582900D01*
D46*
X71801800Y-79477600D02*
X62356800Y-79477600D01*
X58350000Y-121000000D02*
X53350000Y-126000000D01*
X62356800Y-79477600D02*
X56012800Y-85821600D01*
D49*
X49324800Y-85821600D02*
X49324800Y-91917600D01*
D46*
X46659500Y-94582900D02*
X40878500Y-100363900D01*
X90876800Y-75160700D02*
X92000000Y-74037500D01*
D49*
X80543900Y-83325200D02*
X75649400Y-83325200D01*
D46*
X75649400Y-83325200D02*
X71801800Y-79477600D01*
X56012800Y-85821600D02*
X49324800Y-85821600D01*
D49*
X40878500Y-106334100D02*
X40878500Y-106652600D01*
D46*
X41010400Y-118010400D02*
X47000000Y-124000000D01*
X47000000Y-124000000D02*
X51350000Y-124000000D01*
X90876800Y-75160700D02*
X94501900Y-78785800D01*
X94501900Y-80745300D02*
X90420500Y-84826700D01*
X41010400Y-106784500D02*
X41010400Y-118010400D01*
X94501900Y-78785800D02*
X94501900Y-80745300D01*
X82045400Y-84826700D02*
X80637200Y-83418500D01*
D50*
X87479999Y-110900000D02*
X87475000Y-111600000D01*
X84475000Y-109905000D02*
X86400000Y-109910000D01*
X87475000Y-111600000D02*
X87475000Y-113200000D01*
X86400000Y-109910000D02*
X87479999Y-110900000D01*
X87475000Y-113200000D02*
X86600000Y-114600000D01*
X86600000Y-114600000D02*
X85500000Y-116200000D01*
D46*
X79525000Y-91365000D02*
X79525000Y-90095000D01*
X80548300Y-95028600D02*
X81666100Y-93910800D01*
X77058900Y-95028600D02*
X80548300Y-95028600D01*
X73587500Y-98500000D02*
X77058900Y-95028600D01*
X81666100Y-93910800D02*
X81666100Y-92009200D01*
D49*
X80169200Y-92009200D02*
X79525000Y-91365000D01*
X81666100Y-92009200D02*
X80169200Y-92009200D01*
D46*
X78030000Y-88600000D02*
X79525000Y-90095000D01*
X74000000Y-88600000D02*
X78030000Y-88600000D01*
X98358800Y-64197400D02*
X97813800Y-64742400D01*
X167467400Y-64197400D02*
X98358800Y-64197400D01*
X81950000Y-71625300D02*
X90457400Y-63117900D01*
X80500000Y-82000000D02*
X80114400Y-82385600D01*
X80114400Y-82385600D02*
X76060600Y-82385600D01*
X81950000Y-80600000D02*
X80500000Y-82000000D01*
X81950000Y-73640000D02*
X81950000Y-71625300D01*
X168670000Y-65400000D02*
X167467400Y-64197400D01*
X90457400Y-63117900D02*
X96189300Y-63117900D01*
X81950000Y-73640000D02*
X81950000Y-80600000D01*
X79525000Y-73635000D02*
X81950000Y-73640000D01*
X76060600Y-82385600D02*
X75175000Y-81500000D01*
X86900000Y-79225000D02*
X86488300Y-78813300D01*
X79768300Y-93661700D02*
X79525000Y-93905000D01*
D51*
X79000000Y-77900000D02*
X77200000Y-78400000D01*
D46*
X88000000Y-79225000D02*
X86900000Y-79225000D01*
X99114300Y-85198200D02*
X98662500Y-85650000D01*
X99507000Y-97546700D02*
X98703700Y-98350000D01*
X99728700Y-97325000D02*
X103200000Y-97325000D01*
D45*
X88075000Y-71090000D02*
X88075000Y-72290000D01*
D46*
X75355600Y-102250900D02*
X75355600Y-101056900D01*
D45*
X88075000Y-106090000D02*
X88075000Y-107290000D01*
D46*
X86900000Y-79225000D02*
X86325000Y-79800000D01*
X77200000Y-77125000D02*
X77200000Y-78400000D01*
X98703700Y-98350000D02*
X98662500Y-98350000D01*
D51*
X79000000Y-75600000D02*
X79000000Y-77900000D01*
D46*
X81021200Y-93661700D02*
X79768300Y-93661700D01*
X76825000Y-81500000D02*
X76825000Y-80505000D01*
X75355600Y-101056900D02*
X75412500Y-101000000D01*
X71750000Y-116500000D02*
X73500000Y-114000000D01*
D51*
X79525000Y-74905000D02*
X79000000Y-75600000D01*
D45*
X88075000Y-90090000D02*
X88075000Y-91290000D01*
D46*
X75430000Y-114000000D02*
X79525000Y-109905000D01*
X99507000Y-97546700D02*
X99728700Y-97325000D01*
X73500000Y-114000000D02*
X75430000Y-114000000D01*
X101897300Y-84625000D02*
X101324100Y-85198200D01*
X101324100Y-85198200D02*
X99114300Y-85198200D01*
X103200000Y-84625000D02*
X101897300Y-84625000D01*
D48*
X70750000Y-116500000D02*
X71750000Y-116500000D01*
D46*
X75412500Y-99175000D02*
X73587500Y-101000000D01*
D49*
X78880800Y-107990800D02*
X79525000Y-108635000D01*
D46*
X72180100Y-102407400D02*
X72180100Y-104749800D01*
X72180100Y-104749800D02*
X75421100Y-107990800D01*
X75421100Y-107990800D02*
X78247500Y-107990800D01*
D49*
X78247500Y-107990800D02*
X78880800Y-107990800D01*
D46*
X75412500Y-98500000D02*
X75412500Y-99175000D01*
X73587500Y-101000000D02*
X72180100Y-102407400D01*
D52*
X48663000Y-49100000D02*
X48663000Y-44900000D01*
X54500000Y-52000000D02*
X51600000Y-49100000D01*
X51600000Y-49100000D02*
X48663000Y-49100000D01*
D45*
X48663000Y-44900000D02*
X48700000Y-41800000D01*
D48*
X69750000Y-116500000D02*
X68750000Y-116500000D01*
D46*
X68750000Y-116500000D02*
X67000000Y-114000000D01*
D45*
X55400000Y-46225000D02*
X55400000Y-47700000D01*
D48*
X66280000Y-62375000D02*
X66280000Y-63600000D01*
D46*
X51700000Y-63248600D02*
X51700000Y-62500000D01*
X56651600Y-125998400D02*
X56650000Y-126000000D01*
X56651600Y-124859100D02*
X56651600Y-125998400D01*
X52282000Y-63830600D02*
X51700000Y-63248600D01*
D52*
X56000000Y-114000000D02*
X56000000Y-112000000D01*
D48*
X53040000Y-97080000D02*
X53040000Y-99300000D01*
X55000000Y-101000000D02*
X57587500Y-101000000D01*
D46*
X57587500Y-101000000D02*
X57587500Y-102250000D01*
D48*
X53040000Y-99300000D02*
X55000000Y-101000000D01*
D46*
X85831300Y-102950500D02*
X91221800Y-102950500D01*
X84475000Y-107365000D02*
X84475000Y-107918900D01*
X100175000Y-95880000D02*
X99410400Y-95880000D01*
X84475000Y-107918900D02*
X93581100Y-107918900D01*
X83117200Y-106551400D02*
X83117200Y-105664600D01*
X84475000Y-107918900D02*
X84475000Y-108635000D01*
X93581100Y-107918900D02*
X95500000Y-106000000D01*
X83117200Y-105664600D02*
X85831300Y-102950500D01*
X91221800Y-102950500D02*
X96169700Y-98002600D01*
X99410400Y-95880000D02*
X97809600Y-97480800D01*
X84475000Y-107365000D02*
X83930800Y-107365000D01*
X83930800Y-107365000D02*
X83117200Y-106551400D01*
X101825000Y-95880000D02*
X103502100Y-95880000D01*
X104026200Y-98048800D02*
X103200000Y-98875000D01*
X109063400Y-94693400D02*
X105236300Y-94693400D01*
X105236300Y-94693400D02*
X103775900Y-96153800D01*
X100500000Y-92500000D02*
X101825000Y-93825000D01*
D49*
X103775900Y-96430700D02*
X104026200Y-96681000D01*
D46*
X100962500Y-98875000D02*
X100537500Y-99300000D01*
D49*
X103775900Y-96153800D02*
X103775900Y-96430700D01*
D46*
X104026200Y-96681000D02*
X104026200Y-98048800D01*
X103200000Y-98875000D02*
X100962500Y-98875000D01*
X103502100Y-95880000D02*
X103775900Y-96153800D01*
X110250000Y-95880000D02*
X109063400Y-94693400D01*
X101825000Y-93825000D02*
X101825000Y-95880000D01*
X56537500Y-92900500D02*
X56538000Y-92900000D01*
D48*
X55000000Y-92000000D02*
X56538000Y-92900000D01*
D46*
X56537500Y-94000000D02*
X56537500Y-96000000D01*
X56537500Y-94000000D02*
X56537500Y-92900500D01*
D48*
X53040000Y-92000000D02*
X55000000Y-92000000D01*
D46*
X111428500Y-90283000D02*
X111428500Y-96374900D01*
X112648700Y-87556800D02*
X112648700Y-82124800D01*
X107553400Y-100250000D02*
X98662500Y-100250000D01*
X110675500Y-89530000D02*
X112648700Y-87556800D01*
X98662500Y-88376300D02*
X99816200Y-89530000D01*
D49*
X112648700Y-82124800D02*
X111425200Y-80901300D01*
D46*
X110675500Y-89530000D02*
X111428500Y-90283000D01*
X99816200Y-89530000D02*
X110675500Y-89530000D01*
X110250000Y-68239100D02*
X111425200Y-68239100D01*
X109279100Y-69210000D02*
X110250000Y-68239100D01*
X110250000Y-67940000D02*
X110250000Y-68239100D01*
X111428500Y-96374900D02*
X107553400Y-100250000D01*
X103290000Y-69210000D02*
X109279100Y-69210000D01*
X102500000Y-70000000D02*
X103290000Y-69210000D01*
X98662500Y-88376300D02*
X98662500Y-87550000D01*
D49*
X111425200Y-80901300D02*
X111425200Y-68239100D01*
D46*
X104041900Y-85333100D02*
X103200000Y-86175000D01*
X103200000Y-86175000D02*
X100962500Y-86175000D01*
X104041900Y-84174600D02*
X104041900Y-84397900D01*
X100500000Y-79800000D02*
X101825000Y-81125000D01*
X101825000Y-81125000D02*
X101825000Y-83180000D01*
X104041900Y-84397900D02*
X104041900Y-85333100D01*
X103047300Y-83180000D02*
X104041900Y-84174600D01*
X100962500Y-86175000D02*
X100537500Y-86600000D01*
X104041900Y-84397900D02*
X109032100Y-84397900D01*
X109032100Y-84397900D02*
X110250000Y-83180000D01*
X101825000Y-83180000D02*
X103047300Y-83180000D01*
D47*
X52179800Y-60384000D02*
X49416000Y-60384000D01*
D52*
X50538000Y-43950000D02*
X52900000Y-42750000D01*
D47*
X55481900Y-57081900D02*
X52179800Y-60384000D01*
X97000000Y-104500000D02*
X86479999Y-104500000D01*
D45*
X86525000Y-90090000D02*
X84475000Y-90095000D01*
X86525000Y-106090000D02*
X84475000Y-106095000D01*
D47*
X86479999Y-104500000D02*
X86525000Y-106090000D01*
X97000000Y-68000000D02*
X86479999Y-68000000D01*
X86479999Y-68000000D02*
X86525000Y-71090000D01*
X48181800Y-66369900D02*
X48181800Y-63381800D01*
X97000000Y-90000000D02*
X97000000Y-104500000D01*
X97000000Y-68000000D02*
X97000000Y-90000000D01*
X48181800Y-66369900D02*
X44551700Y-70000000D01*
X97000000Y-90000000D02*
X91200000Y-90000000D01*
X97000000Y-48500000D02*
X97000000Y-68000000D01*
X55480000Y-57080000D02*
X57600000Y-57080000D01*
X50311900Y-68500000D02*
X48181800Y-66369900D01*
X48181800Y-63381800D02*
X47300000Y-62500000D01*
X49416000Y-60384000D02*
X47300000Y-62500000D01*
D48*
X66280000Y-58000000D02*
X66280000Y-60825000D01*
D47*
X43200000Y-70000000D02*
X44551700Y-70000000D01*
X74000000Y-48500000D02*
X97000000Y-48500000D01*
D52*
X52900000Y-42750000D02*
X57600000Y-42750000D01*
D47*
X86479999Y-88600000D02*
X86525000Y-90090000D01*
X53500000Y-68500000D02*
X50311900Y-68500000D01*
D45*
X86525000Y-71090000D02*
X84475000Y-71095000D01*
D46*
X52900000Y-46050000D02*
X55400000Y-44575000D01*
X50538000Y-45850000D02*
X52900000Y-46050000D01*
D45*
X66500000Y-83100000D02*
X64000000Y-83100000D01*
X69000000Y-86200000D02*
X66500000Y-83100000D01*
D46*
X69000000Y-86200000D02*
X71000000Y-86200000D01*
D48*
X64000000Y-80462500D02*
X64000000Y-83100000D01*
D46*
X71000000Y-86200000D02*
X72700000Y-84600000D01*
D48*
X50500000Y-87500000D02*
X50500000Y-92000000D01*
D46*
X60300000Y-87500000D02*
X60300000Y-85000000D01*
D48*
X64000000Y-85900000D02*
X64000000Y-87500000D01*
X50500000Y-94540000D02*
X50500000Y-97080000D01*
X50500000Y-92000000D02*
X50500000Y-94540000D01*
X60300000Y-87500000D02*
X50500000Y-87500000D01*
X64000000Y-87500000D02*
X60300000Y-87500000D01*
D46*
X88000000Y-77575000D02*
X88000000Y-75825000D01*
D49*
X86414600Y-74279200D02*
X85119200Y-74279200D01*
D46*
X87960400Y-75825000D02*
X86414600Y-74279200D01*
X88000000Y-75825000D02*
X87960400Y-75825000D01*
D49*
X85119200Y-74279200D02*
X84475000Y-73635000D01*
D50*
X77155000Y-72330000D02*
X79525000Y-72365000D01*
X77155000Y-72330000D02*
X77205000Y-73900000D01*
X77200000Y-75475000D02*
X75300000Y-76300000D01*
X77205000Y-73900000D02*
X77200000Y-75475000D01*
D48*
X54600000Y-96600000D02*
X56200000Y-98000000D01*
D46*
X57587500Y-98000000D02*
X57587500Y-99250000D01*
D48*
X56200000Y-98000000D02*
X57587500Y-98000000D01*
X53040000Y-94540000D02*
X54600000Y-96600000D01*
D46*
X68500000Y-108500000D02*
X68500000Y-94500000D01*
X70500000Y-92640000D02*
X79525000Y-92635000D01*
X50500000Y-102000000D02*
X50500000Y-104540000D01*
X66500000Y-110500000D02*
X68500000Y-108500000D01*
X50500000Y-104540000D02*
X50500000Y-107080000D01*
X50500000Y-104540000D02*
X42600000Y-106500000D01*
X68500000Y-94500000D02*
X70500000Y-92640000D01*
X64000000Y-125000000D02*
X80000000Y-125000000D01*
X80000000Y-125000000D02*
X92600000Y-125000000D01*
X80000000Y-125000000D02*
X80000000Y-127600000D01*
X92600000Y-111600000D02*
X89125000Y-111600000D01*
X64000000Y-129500000D02*
X64000000Y-125000000D01*
X92600000Y-125000000D02*
X92600000Y-111600000D01*
X83115500Y-94212100D02*
X83115500Y-93279200D01*
X89087500Y-98500000D02*
X87403400Y-98500000D01*
X84475000Y-91365000D02*
X84475000Y-92635000D01*
D49*
X83830800Y-93279200D02*
X84475000Y-92635000D01*
D46*
X87403400Y-98500000D02*
X83115500Y-94212100D01*
X92087500Y-95500000D02*
X89087500Y-98500000D01*
D49*
X83115500Y-93279200D02*
X83830800Y-93279200D01*
D46*
X94000000Y-95500000D02*
X92087500Y-95500000D01*
X70500000Y-87000000D02*
X89600000Y-87000000D01*
X69000000Y-91600000D02*
X70500000Y-87000000D01*
X89600000Y-93910000D02*
X84475000Y-93905000D01*
X65599999Y-91600000D02*
X66200000Y-95000000D01*
X89600000Y-87000000D02*
X89600000Y-93910000D01*
X63500000Y-91600000D02*
X65599999Y-91600000D01*
X66200000Y-95000000D02*
X67000000Y-96500000D01*
X65599999Y-91600000D02*
X69000000Y-91600000D01*
G04 #@! TA.AperFunction,Conductor*
G36*
X74943039Y-41019685D02*
G01*
X74988794Y-41072489D01*
X75000000Y-41124000D01*
X75000000Y-55979876D01*
X74980315Y-56046915D01*
X74927511Y-56092670D01*
X74895398Y-56102349D01*
X74742302Y-56126597D01*
X74577552Y-56180128D01*
X74423211Y-56258768D01*
X74343256Y-56316859D01*
X74283072Y-56360586D01*
X74283070Y-56360588D01*
X74283069Y-56360588D01*
X74160588Y-56483069D01*
X74160588Y-56483070D01*
X74160586Y-56483072D01*
X74116859Y-56543256D01*
X74058768Y-56623211D01*
X73980128Y-56777552D01*
X73926597Y-56942302D01*
X73899500Y-57113389D01*
X73899500Y-57286611D01*
X73899499Y-57286611D01*
X73920915Y-57421824D01*
X73911960Y-57491117D01*
X73881394Y-57533389D01*
X73398308Y-57968168D01*
X73335310Y-57998384D01*
X73315356Y-58000000D01*
X69839500Y-58000000D01*
X69772461Y-57980315D01*
X69726706Y-57927511D01*
X69715500Y-57876000D01*
X69715500Y-57864054D01*
X69687048Y-57684419D01*
X69630842Y-57511437D01*
X69558397Y-57369258D01*
X69548272Y-57349386D01*
X69534613Y-57330586D01*
X69441371Y-57202248D01*
X69441367Y-57202243D01*
X69312756Y-57073632D01*
X69312751Y-57073628D01*
X69165617Y-56966730D01*
X69165616Y-56966729D01*
X69165614Y-56966728D01*
X69088103Y-56927234D01*
X69003562Y-56884157D01*
X68830580Y-56827951D01*
X68650945Y-56799500D01*
X68650940Y-56799500D01*
X68469060Y-56799500D01*
X68469055Y-56799500D01*
X68289419Y-56827951D01*
X68116437Y-56884157D01*
X67954382Y-56966730D01*
X67807248Y-57073628D01*
X67807243Y-57073632D01*
X67678632Y-57202243D01*
X67678628Y-57202248D01*
X67571730Y-57349382D01*
X67489157Y-57511437D01*
X67432951Y-57684419D01*
X67404500Y-57864054D01*
X67404500Y-57876000D01*
X67384815Y-57943039D01*
X67332011Y-57988794D01*
X67280500Y-58000000D01*
X65279499Y-58000000D01*
X65212460Y-57980315D01*
X65166705Y-57927511D01*
X65155499Y-57876000D01*
X65155499Y-57055143D01*
X65155499Y-57055136D01*
X65155497Y-57055117D01*
X65152586Y-57030012D01*
X65152585Y-57030010D01*
X65152585Y-57030009D01*
X65107206Y-56927235D01*
X65027765Y-56847794D01*
X64982825Y-56827951D01*
X64924992Y-56802415D01*
X64899865Y-56799500D01*
X63100143Y-56799500D01*
X63100117Y-56799502D01*
X63075012Y-56802413D01*
X63075008Y-56802415D01*
X62972235Y-56847793D01*
X62892794Y-56927234D01*
X62847415Y-57030006D01*
X62847415Y-57030008D01*
X62844500Y-57055131D01*
X62844500Y-57876000D01*
X62824815Y-57943039D01*
X62772011Y-57988794D01*
X62720500Y-58000000D01*
X57124000Y-58000000D01*
X57056961Y-57980315D01*
X57011206Y-57927511D01*
X57000000Y-57876000D01*
X57000000Y-41124000D01*
X57019685Y-41056961D01*
X57072489Y-41011206D01*
X57124000Y-41000000D01*
X74876000Y-41000000D01*
X74943039Y-41019685D01*
G37*
G04 #@! TD.AperFunction*
M02*
