M48
; DRILL file KiCad 10.0.6 date 2026-10-06T21:58:42
; FORMAT={-:-/ absolute / metric / decimal}
; #@! TF.CreationDate,2026-10-06T21:58:42-05:00
; #@! TF.GenerationSoftware,Kicad,Pcbnew,10.0.6
; #@! TF.FileFunction,Plated,1,2,PTH
FMAT,2
METRIC
; #@! TA.AperFunction,Plated,PTH,ViaDrill
T1C0.300
; #@! TA.AperFunction,Plated,PTH,ComponentDrill
T2C0.800
; #@! TA.AperFunction,Plated,PTH,ComponentDrill
T3C1.000
; #@! TA.AperFunction,Plated,PTH,ComponentDrill
T4C1.300
%
G90
G05
T1
X52.282Y-63.831
X56.0Y-112.0
X56.537Y-96.0
X56.652Y-124.859
X57.587Y-99.25
X57.587Y-102.25
X66.28Y-63.6
X66.5Y-110.5
X68.75Y-116.5
X71.75Y-116.5
X75.356Y-102.251
X76.825Y-80.505
X77.2Y-78.4
X81.021Y-93.662
X86.48Y-88.6
X86.488Y-78.813
X88.075Y-72.29
X88.075Y-91.29
X88.075Y-107.29
X91.2Y-90.0
X92.948Y-78.129
X96.168Y-81.599
X96.17Y-98.003
X96.189Y-63.118
X97.81Y-97.481
X97.814Y-64.742
X97.82Y-80.007
X97.826Y-82.175
X99.507Y-97.547
X101.324Y-85.198
T2
X58.3Y-62.0
X58.3Y-74.7
X69.0Y-73.5
X69.0Y-86.2
X75.0Y-57.2
X75.0Y-69.9
T3
X42.6Y-106.5
X43.2Y-70.0
X43.2Y-72.54
X50.5Y-92.0
X50.5Y-94.54
X50.5Y-97.08
X50.5Y-102.0
X50.5Y-104.54
X50.5Y-107.08
X53.04Y-92.0
X53.04Y-94.54
X53.04Y-97.08
X53.04Y-102.0
X53.04Y-104.54
X53.04Y-107.08
X53.5Y-68.5
X58.5Y-79.0
X60.0Y-121.0
X60.3Y-85.0
X60.5Y-113.5
X61.46Y-129.5
X62.0Y-64.5
X64.0Y-58.0
X64.0Y-129.5
X66.28Y-58.0
X67.0Y-96.5
X67.0Y-114.0
X68.56Y-58.0
X71.2Y-69.8
X72.7Y-84.6
X73.5Y-114.0
X74.0Y-88.6
X74.0Y-104.0
X78.6Y-57.5
X80.0Y-127.6
X80.5Y-82.0
X84.0Y-122.4
X85.5Y-116.2
X88.0Y-83.5
X92.0Y-70.5
X94.0Y-95.5
X95.5Y-106.0
X100.5Y-79.8
X100.5Y-92.5
X102.5Y-70.0
X107.71Y-50.16
X107.71Y-52.7
X107.71Y-55.24
X107.71Y-57.78
X107.71Y-60.32
X107.71Y-62.86
X107.71Y-65.4
X107.71Y-67.94
X107.71Y-70.48
X107.71Y-73.02
X107.71Y-75.56
X107.71Y-78.1
X107.71Y-80.64
X107.71Y-83.18
X107.71Y-85.72
X107.71Y-88.26
X107.71Y-90.8
X107.71Y-93.34
X107.71Y-95.88
X110.25Y-50.16
X110.25Y-52.7
X110.25Y-55.24
X110.25Y-57.78
X110.25Y-60.32
X110.25Y-62.86
X110.25Y-65.4
X110.25Y-67.94
X110.25Y-70.48
X110.25Y-73.02
X110.25Y-75.56
X110.25Y-78.1
X110.25Y-80.64
X110.25Y-83.18
X110.25Y-85.72
X110.25Y-88.26
X110.25Y-90.8
X110.25Y-93.34
X110.25Y-95.88
X168.67Y-50.16
X168.67Y-52.7
X168.67Y-55.24
X168.67Y-57.78
X168.67Y-60.32
X168.67Y-62.86
X168.67Y-65.4
X168.67Y-67.94
X168.67Y-70.48
X168.67Y-73.02
X168.67Y-75.56
X168.67Y-78.1
X168.67Y-80.64
X168.67Y-83.18
X168.67Y-85.72
X168.67Y-88.26
X168.67Y-90.8
X168.67Y-93.34
X168.67Y-95.88
X171.21Y-50.16
X171.21Y-52.7
X171.21Y-55.24
X171.21Y-57.78
X171.21Y-60.32
X171.21Y-62.86
X171.21Y-65.4
X171.21Y-67.94
X171.21Y-70.48
X171.21Y-73.02
X171.21Y-75.56
X171.21Y-78.1
X171.21Y-80.64
X171.21Y-83.18
X171.21Y-85.72
X171.21Y-88.26
X171.21Y-90.8
X171.21Y-93.34
X171.21Y-95.88
T4
X47.0Y-114.0
X47.0Y-119.0
X47.0Y-124.0
T3
X48.5Y-51.0G85X48.5Y-53.0
G05
X50.5Y-56.7G85X52.5Y-56.7
G05
X54.5Y-51.0G85X54.5Y-53.0
G05
M30
