%TF.GenerationSoftware,KiCad,Pcbnew,10.0.6*%
%TF.CreationDate,2026-10-06T21:58:42-05:00*%
%TF.ProjectId,curve-tracer,63757276-652d-4747-9261-6365722e6b69,rev?*%
%TF.SameCoordinates,Original*%
%TF.FileFunction,Drillmap*%
%TF.FilePolarity,Positive*%
%FSLAX45Y45*%
G04 Gerber Fmt 4.5, Leading zero omitted, Abs format (unit mm)*
G04 Created by KiCad (PCBNEW 10.0.6) date 2026-10-06 21:58:42*
%MOMM*%
%LPD*%
G01*
G04 APERTURE LIST*
%ADD10C,0.100000*%
%ADD11C,0.200000*%
%ADD12C,0.320000*%
G04 APERTURE END LIST*
D10*
X4000000Y-4000000D02*
X17500000Y-4000000D01*
X4000000Y-13200000D02*
X4000000Y-4000000D01*
X17500000Y-4000000D02*
X17500000Y-13200000D01*
X17500000Y-13200000D02*
X4000000Y-13200000D01*
D11*
D12*
X4240000Y-4200000D02*
X4560000Y-4520000D01*
X4560000Y-4200000D02*
X4240000Y-4520000D01*
X9740000Y-4240000D02*
X10060000Y-4560000D01*
X10060000Y-4240000D02*
X9740000Y-4560000D01*
X10040000Y-12640000D02*
X10360000Y-12960000D01*
X10360000Y-12640000D02*
X10040000Y-12960000D01*
X16940000Y-12640000D02*
X17260000Y-12960000D01*
X17260000Y-12640000D02*
X16940000Y-12960000D01*
D11*
X4255777Y-13516484D02*
X4255777Y-13316484D01*
X4255777Y-13316484D02*
X4303396Y-13316484D01*
X4303396Y-13316484D02*
X4331967Y-13326008D01*
X4331967Y-13326008D02*
X4351015Y-13345055D01*
X4351015Y-13345055D02*
X4360539Y-13364103D01*
X4360539Y-13364103D02*
X4370063Y-13402198D01*
X4370063Y-13402198D02*
X4370063Y-13430769D01*
X4370063Y-13430769D02*
X4360539Y-13468865D01*
X4360539Y-13468865D02*
X4351015Y-13487912D01*
X4351015Y-13487912D02*
X4331967Y-13506960D01*
X4331967Y-13506960D02*
X4303396Y-13516484D01*
X4303396Y-13516484D02*
X4255777Y-13516484D01*
X4455777Y-13516484D02*
X4455777Y-13383150D01*
X4455777Y-13421246D02*
X4465301Y-13402198D01*
X4465301Y-13402198D02*
X4474824Y-13392674D01*
X4474824Y-13392674D02*
X4493872Y-13383150D01*
X4493872Y-13383150D02*
X4512920Y-13383150D01*
X4579586Y-13516484D02*
X4579586Y-13383150D01*
X4579586Y-13316484D02*
X4570063Y-13326008D01*
X4570063Y-13326008D02*
X4579586Y-13335531D01*
X4579586Y-13335531D02*
X4589110Y-13326008D01*
X4589110Y-13326008D02*
X4579586Y-13316484D01*
X4579586Y-13316484D02*
X4579586Y-13335531D01*
X4703396Y-13516484D02*
X4684348Y-13506960D01*
X4684348Y-13506960D02*
X4674824Y-13487912D01*
X4674824Y-13487912D02*
X4674824Y-13316484D01*
X4808158Y-13516484D02*
X4789110Y-13506960D01*
X4789110Y-13506960D02*
X4779586Y-13487912D01*
X4779586Y-13487912D02*
X4779586Y-13316484D01*
X5036729Y-13516484D02*
X5036729Y-13316484D01*
X5036729Y-13316484D02*
X5103396Y-13459341D01*
X5103396Y-13459341D02*
X5170063Y-13316484D01*
X5170063Y-13316484D02*
X5170063Y-13516484D01*
X5351015Y-13516484D02*
X5351015Y-13411722D01*
X5351015Y-13411722D02*
X5341491Y-13392674D01*
X5341491Y-13392674D02*
X5322444Y-13383150D01*
X5322444Y-13383150D02*
X5284348Y-13383150D01*
X5284348Y-13383150D02*
X5265301Y-13392674D01*
X5351015Y-13506960D02*
X5331967Y-13516484D01*
X5331967Y-13516484D02*
X5284348Y-13516484D01*
X5284348Y-13516484D02*
X5265301Y-13506960D01*
X5265301Y-13506960D02*
X5255777Y-13487912D01*
X5255777Y-13487912D02*
X5255777Y-13468865D01*
X5255777Y-13468865D02*
X5265301Y-13449817D01*
X5265301Y-13449817D02*
X5284348Y-13440293D01*
X5284348Y-13440293D02*
X5331967Y-13440293D01*
X5331967Y-13440293D02*
X5351015Y-13430769D01*
X5446253Y-13383150D02*
X5446253Y-13583150D01*
X5446253Y-13392674D02*
X5465301Y-13383150D01*
X5465301Y-13383150D02*
X5503396Y-13383150D01*
X5503396Y-13383150D02*
X5522444Y-13392674D01*
X5522444Y-13392674D02*
X5531967Y-13402198D01*
X5531967Y-13402198D02*
X5541491Y-13421246D01*
X5541491Y-13421246D02*
X5541491Y-13478388D01*
X5541491Y-13478388D02*
X5531967Y-13497436D01*
X5531967Y-13497436D02*
X5522444Y-13506960D01*
X5522444Y-13506960D02*
X5503396Y-13516484D01*
X5503396Y-13516484D02*
X5465301Y-13516484D01*
X5465301Y-13516484D02*
X5446253Y-13506960D01*
X5627205Y-13497436D02*
X5636729Y-13506960D01*
X5636729Y-13506960D02*
X5627205Y-13516484D01*
X5627205Y-13516484D02*
X5617682Y-13506960D01*
X5617682Y-13506960D02*
X5627205Y-13497436D01*
X5627205Y-13497436D02*
X5627205Y-13516484D01*
X5627205Y-13392674D02*
X5636729Y-13402198D01*
X5636729Y-13402198D02*
X5627205Y-13411722D01*
X5627205Y-13411722D02*
X5617682Y-13402198D01*
X5617682Y-13402198D02*
X5627205Y-13392674D01*
X5627205Y-13392674D02*
X5627205Y-13411722D01*
X3795000Y-13745000D02*
X3995000Y-13945000D01*
X3995000Y-13745000D02*
X3795000Y-13945000D01*
X4236729Y-13736484D02*
X4360539Y-13736484D01*
X4360539Y-13736484D02*
X4293872Y-13812674D01*
X4293872Y-13812674D02*
X4322444Y-13812674D01*
X4322444Y-13812674D02*
X4341491Y-13822198D01*
X4341491Y-13822198D02*
X4351015Y-13831722D01*
X4351015Y-13831722D02*
X4360539Y-13850769D01*
X4360539Y-13850769D02*
X4360539Y-13898388D01*
X4360539Y-13898388D02*
X4351015Y-13917436D01*
X4351015Y-13917436D02*
X4341491Y-13926960D01*
X4341491Y-13926960D02*
X4322444Y-13936484D01*
X4322444Y-13936484D02*
X4265301Y-13936484D01*
X4265301Y-13936484D02*
X4246253Y-13926960D01*
X4246253Y-13926960D02*
X4236729Y-13917436D01*
X4446253Y-13917436D02*
X4455777Y-13926960D01*
X4455777Y-13926960D02*
X4446253Y-13936484D01*
X4446253Y-13936484D02*
X4436729Y-13926960D01*
X4436729Y-13926960D02*
X4446253Y-13917436D01*
X4446253Y-13917436D02*
X4446253Y-13936484D01*
X4531967Y-13755531D02*
X4541491Y-13746008D01*
X4541491Y-13746008D02*
X4560539Y-13736484D01*
X4560539Y-13736484D02*
X4608158Y-13736484D01*
X4608158Y-13736484D02*
X4627205Y-13746008D01*
X4627205Y-13746008D02*
X4636729Y-13755531D01*
X4636729Y-13755531D02*
X4646253Y-13774579D01*
X4646253Y-13774579D02*
X4646253Y-13793627D01*
X4646253Y-13793627D02*
X4636729Y-13822198D01*
X4636729Y-13822198D02*
X4522444Y-13936484D01*
X4522444Y-13936484D02*
X4646253Y-13936484D01*
X4770063Y-13736484D02*
X4789110Y-13736484D01*
X4789110Y-13736484D02*
X4808158Y-13746008D01*
X4808158Y-13746008D02*
X4817682Y-13755531D01*
X4817682Y-13755531D02*
X4827205Y-13774579D01*
X4827205Y-13774579D02*
X4836729Y-13812674D01*
X4836729Y-13812674D02*
X4836729Y-13860293D01*
X4836729Y-13860293D02*
X4827205Y-13898388D01*
X4827205Y-13898388D02*
X4817682Y-13917436D01*
X4817682Y-13917436D02*
X4808158Y-13926960D01*
X4808158Y-13926960D02*
X4789110Y-13936484D01*
X4789110Y-13936484D02*
X4770063Y-13936484D01*
X4770063Y-13936484D02*
X4751015Y-13926960D01*
X4751015Y-13926960D02*
X4741491Y-13917436D01*
X4741491Y-13917436D02*
X4731967Y-13898388D01*
X4731967Y-13898388D02*
X4722444Y-13860293D01*
X4722444Y-13860293D02*
X4722444Y-13812674D01*
X4722444Y-13812674D02*
X4731967Y-13774579D01*
X4731967Y-13774579D02*
X4741491Y-13755531D01*
X4741491Y-13755531D02*
X4751015Y-13746008D01*
X4751015Y-13746008D02*
X4770063Y-13736484D01*
X4960539Y-13736484D02*
X4979586Y-13736484D01*
X4979586Y-13736484D02*
X4998634Y-13746008D01*
X4998634Y-13746008D02*
X5008158Y-13755531D01*
X5008158Y-13755531D02*
X5017682Y-13774579D01*
X5017682Y-13774579D02*
X5027205Y-13812674D01*
X5027205Y-13812674D02*
X5027205Y-13860293D01*
X5027205Y-13860293D02*
X5017682Y-13898388D01*
X5017682Y-13898388D02*
X5008158Y-13917436D01*
X5008158Y-13917436D02*
X4998634Y-13926960D01*
X4998634Y-13926960D02*
X4979586Y-13936484D01*
X4979586Y-13936484D02*
X4960539Y-13936484D01*
X4960539Y-13936484D02*
X4941491Y-13926960D01*
X4941491Y-13926960D02*
X4931967Y-13917436D01*
X4931967Y-13917436D02*
X4922444Y-13898388D01*
X4922444Y-13898388D02*
X4912920Y-13860293D01*
X4912920Y-13860293D02*
X4912920Y-13812674D01*
X4912920Y-13812674D02*
X4922444Y-13774579D01*
X4922444Y-13774579D02*
X4931967Y-13755531D01*
X4931967Y-13755531D02*
X4941491Y-13746008D01*
X4941491Y-13746008D02*
X4960539Y-13736484D01*
X5112920Y-13936484D02*
X5112920Y-13803150D01*
X5112920Y-13822198D02*
X5122444Y-13812674D01*
X5122444Y-13812674D02*
X5141491Y-13803150D01*
X5141491Y-13803150D02*
X5170063Y-13803150D01*
X5170063Y-13803150D02*
X5189110Y-13812674D01*
X5189110Y-13812674D02*
X5198634Y-13831722D01*
X5198634Y-13831722D02*
X5198634Y-13936484D01*
X5198634Y-13831722D02*
X5208158Y-13812674D01*
X5208158Y-13812674D02*
X5227205Y-13803150D01*
X5227205Y-13803150D02*
X5255777Y-13803150D01*
X5255777Y-13803150D02*
X5274825Y-13812674D01*
X5274825Y-13812674D02*
X5284348Y-13831722D01*
X5284348Y-13831722D02*
X5284348Y-13936484D01*
X5379586Y-13936484D02*
X5379586Y-13803150D01*
X5379586Y-13822198D02*
X5389110Y-13812674D01*
X5389110Y-13812674D02*
X5408158Y-13803150D01*
X5408158Y-13803150D02*
X5436729Y-13803150D01*
X5436729Y-13803150D02*
X5455777Y-13812674D01*
X5455777Y-13812674D02*
X5465301Y-13831722D01*
X5465301Y-13831722D02*
X5465301Y-13936484D01*
X5465301Y-13831722D02*
X5474825Y-13812674D01*
X5474825Y-13812674D02*
X5493872Y-13803150D01*
X5493872Y-13803150D02*
X5522444Y-13803150D01*
X5522444Y-13803150D02*
X5541491Y-13812674D01*
X5541491Y-13812674D02*
X5551015Y-13831722D01*
X5551015Y-13831722D02*
X5551015Y-13936484D01*
X5941491Y-13726960D02*
X5770063Y-13984103D01*
X6198634Y-13736484D02*
X6217682Y-13736484D01*
X6217682Y-13736484D02*
X6236729Y-13746008D01*
X6236729Y-13746008D02*
X6246253Y-13755531D01*
X6246253Y-13755531D02*
X6255777Y-13774579D01*
X6255777Y-13774579D02*
X6265301Y-13812674D01*
X6265301Y-13812674D02*
X6265301Y-13860293D01*
X6265301Y-13860293D02*
X6255777Y-13898388D01*
X6255777Y-13898388D02*
X6246253Y-13917436D01*
X6246253Y-13917436D02*
X6236729Y-13926960D01*
X6236729Y-13926960D02*
X6217682Y-13936484D01*
X6217682Y-13936484D02*
X6198634Y-13936484D01*
X6198634Y-13936484D02*
X6179586Y-13926960D01*
X6179586Y-13926960D02*
X6170063Y-13917436D01*
X6170063Y-13917436D02*
X6160539Y-13898388D01*
X6160539Y-13898388D02*
X6151015Y-13860293D01*
X6151015Y-13860293D02*
X6151015Y-13812674D01*
X6151015Y-13812674D02*
X6160539Y-13774579D01*
X6160539Y-13774579D02*
X6170063Y-13755531D01*
X6170063Y-13755531D02*
X6179586Y-13746008D01*
X6179586Y-13746008D02*
X6198634Y-13736484D01*
X6351015Y-13917436D02*
X6360539Y-13926960D01*
X6360539Y-13926960D02*
X6351015Y-13936484D01*
X6351015Y-13936484D02*
X6341491Y-13926960D01*
X6341491Y-13926960D02*
X6351015Y-13917436D01*
X6351015Y-13917436D02*
X6351015Y-13936484D01*
X6551015Y-13936484D02*
X6436729Y-13936484D01*
X6493872Y-13936484D02*
X6493872Y-13736484D01*
X6493872Y-13736484D02*
X6474825Y-13765055D01*
X6474825Y-13765055D02*
X6455777Y-13784103D01*
X6455777Y-13784103D02*
X6436729Y-13793627D01*
X6627206Y-13755531D02*
X6636729Y-13746008D01*
X6636729Y-13746008D02*
X6655777Y-13736484D01*
X6655777Y-13736484D02*
X6703396Y-13736484D01*
X6703396Y-13736484D02*
X6722444Y-13746008D01*
X6722444Y-13746008D02*
X6731967Y-13755531D01*
X6731967Y-13755531D02*
X6741491Y-13774579D01*
X6741491Y-13774579D02*
X6741491Y-13793627D01*
X6741491Y-13793627D02*
X6731967Y-13822198D01*
X6731967Y-13822198D02*
X6617682Y-13936484D01*
X6617682Y-13936484D02*
X6741491Y-13936484D01*
X6912920Y-13736484D02*
X6874825Y-13736484D01*
X6874825Y-13736484D02*
X6855777Y-13746008D01*
X6855777Y-13746008D02*
X6846253Y-13755531D01*
X6846253Y-13755531D02*
X6827206Y-13784103D01*
X6827206Y-13784103D02*
X6817682Y-13822198D01*
X6817682Y-13822198D02*
X6817682Y-13898388D01*
X6817682Y-13898388D02*
X6827206Y-13917436D01*
X6827206Y-13917436D02*
X6836729Y-13926960D01*
X6836729Y-13926960D02*
X6855777Y-13936484D01*
X6855777Y-13936484D02*
X6893872Y-13936484D01*
X6893872Y-13936484D02*
X6912920Y-13926960D01*
X6912920Y-13926960D02*
X6922444Y-13917436D01*
X6922444Y-13917436D02*
X6931967Y-13898388D01*
X6931967Y-13898388D02*
X6931967Y-13850769D01*
X6931967Y-13850769D02*
X6922444Y-13831722D01*
X6922444Y-13831722D02*
X6912920Y-13822198D01*
X6912920Y-13822198D02*
X6893872Y-13812674D01*
X6893872Y-13812674D02*
X6855777Y-13812674D01*
X6855777Y-13812674D02*
X6836729Y-13822198D01*
X6836729Y-13822198D02*
X6827206Y-13831722D01*
X6827206Y-13831722D02*
X6817682Y-13850769D01*
X7055777Y-13736484D02*
X7074825Y-13736484D01*
X7074825Y-13736484D02*
X7093872Y-13746008D01*
X7093872Y-13746008D02*
X7103396Y-13755531D01*
X7103396Y-13755531D02*
X7112920Y-13774579D01*
X7112920Y-13774579D02*
X7122444Y-13812674D01*
X7122444Y-13812674D02*
X7122444Y-13860293D01*
X7122444Y-13860293D02*
X7112920Y-13898388D01*
X7112920Y-13898388D02*
X7103396Y-13917436D01*
X7103396Y-13917436D02*
X7093872Y-13926960D01*
X7093872Y-13926960D02*
X7074825Y-13936484D01*
X7074825Y-13936484D02*
X7055777Y-13936484D01*
X7055777Y-13936484D02*
X7036729Y-13926960D01*
X7036729Y-13926960D02*
X7027206Y-13917436D01*
X7027206Y-13917436D02*
X7017682Y-13898388D01*
X7017682Y-13898388D02*
X7008158Y-13860293D01*
X7008158Y-13860293D02*
X7008158Y-13812674D01*
X7008158Y-13812674D02*
X7017682Y-13774579D01*
X7017682Y-13774579D02*
X7027206Y-13755531D01*
X7027206Y-13755531D02*
X7036729Y-13746008D01*
X7036729Y-13746008D02*
X7055777Y-13736484D01*
X7198634Y-13736484D02*
X7198634Y-13774579D01*
X7274825Y-13736484D02*
X7274825Y-13774579D01*
X7570063Y-14012674D02*
X7560539Y-14003150D01*
X7560539Y-14003150D02*
X7541491Y-13974579D01*
X7541491Y-13974579D02*
X7531968Y-13955531D01*
X7531968Y-13955531D02*
X7522444Y-13926960D01*
X7522444Y-13926960D02*
X7512920Y-13879341D01*
X7512920Y-13879341D02*
X7512920Y-13841246D01*
X7512920Y-13841246D02*
X7522444Y-13793627D01*
X7522444Y-13793627D02*
X7531968Y-13765055D01*
X7531968Y-13765055D02*
X7541491Y-13746008D01*
X7541491Y-13746008D02*
X7560539Y-13717436D01*
X7560539Y-13717436D02*
X7570063Y-13707912D01*
X7731968Y-13803150D02*
X7731968Y-13936484D01*
X7684348Y-13726960D02*
X7636729Y-13869817D01*
X7636729Y-13869817D02*
X7760539Y-13869817D01*
X7989110Y-13936484D02*
X7989110Y-13736484D01*
X8074825Y-13936484D02*
X8074825Y-13831722D01*
X8074825Y-13831722D02*
X8065301Y-13812674D01*
X8065301Y-13812674D02*
X8046253Y-13803150D01*
X8046253Y-13803150D02*
X8017682Y-13803150D01*
X8017682Y-13803150D02*
X7998634Y-13812674D01*
X7998634Y-13812674D02*
X7989110Y-13822198D01*
X8198634Y-13936484D02*
X8179587Y-13926960D01*
X8179587Y-13926960D02*
X8170063Y-13917436D01*
X8170063Y-13917436D02*
X8160539Y-13898388D01*
X8160539Y-13898388D02*
X8160539Y-13841246D01*
X8160539Y-13841246D02*
X8170063Y-13822198D01*
X8170063Y-13822198D02*
X8179587Y-13812674D01*
X8179587Y-13812674D02*
X8198634Y-13803150D01*
X8198634Y-13803150D02*
X8227206Y-13803150D01*
X8227206Y-13803150D02*
X8246253Y-13812674D01*
X8246253Y-13812674D02*
X8255777Y-13822198D01*
X8255777Y-13822198D02*
X8265301Y-13841246D01*
X8265301Y-13841246D02*
X8265301Y-13898388D01*
X8265301Y-13898388D02*
X8255777Y-13917436D01*
X8255777Y-13917436D02*
X8246253Y-13926960D01*
X8246253Y-13926960D02*
X8227206Y-13936484D01*
X8227206Y-13936484D02*
X8198634Y-13936484D01*
X8379587Y-13936484D02*
X8360539Y-13926960D01*
X8360539Y-13926960D02*
X8351015Y-13907912D01*
X8351015Y-13907912D02*
X8351015Y-13736484D01*
X8531968Y-13926960D02*
X8512920Y-13936484D01*
X8512920Y-13936484D02*
X8474825Y-13936484D01*
X8474825Y-13936484D02*
X8455777Y-13926960D01*
X8455777Y-13926960D02*
X8446253Y-13907912D01*
X8446253Y-13907912D02*
X8446253Y-13831722D01*
X8446253Y-13831722D02*
X8455777Y-13812674D01*
X8455777Y-13812674D02*
X8474825Y-13803150D01*
X8474825Y-13803150D02*
X8512920Y-13803150D01*
X8512920Y-13803150D02*
X8531968Y-13812674D01*
X8531968Y-13812674D02*
X8541492Y-13831722D01*
X8541492Y-13831722D02*
X8541492Y-13850769D01*
X8541492Y-13850769D02*
X8446253Y-13869817D01*
X8617682Y-13926960D02*
X8636730Y-13936484D01*
X8636730Y-13936484D02*
X8674825Y-13936484D01*
X8674825Y-13936484D02*
X8693873Y-13926960D01*
X8693873Y-13926960D02*
X8703396Y-13907912D01*
X8703396Y-13907912D02*
X8703396Y-13898388D01*
X8703396Y-13898388D02*
X8693873Y-13879341D01*
X8693873Y-13879341D02*
X8674825Y-13869817D01*
X8674825Y-13869817D02*
X8646253Y-13869817D01*
X8646253Y-13869817D02*
X8627206Y-13860293D01*
X8627206Y-13860293D02*
X8617682Y-13841246D01*
X8617682Y-13841246D02*
X8617682Y-13831722D01*
X8617682Y-13831722D02*
X8627206Y-13812674D01*
X8627206Y-13812674D02*
X8646253Y-13803150D01*
X8646253Y-13803150D02*
X8674825Y-13803150D01*
X8674825Y-13803150D02*
X8693873Y-13812674D01*
X8770063Y-14012674D02*
X8779587Y-14003150D01*
X8779587Y-14003150D02*
X8798634Y-13974579D01*
X8798634Y-13974579D02*
X8808158Y-13955531D01*
X8808158Y-13955531D02*
X8817682Y-13926960D01*
X8817682Y-13926960D02*
X8827206Y-13879341D01*
X8827206Y-13879341D02*
X8827206Y-13841246D01*
X8827206Y-13841246D02*
X8817682Y-13793627D01*
X8817682Y-13793627D02*
X8808158Y-13765055D01*
X8808158Y-13765055D02*
X8798634Y-13746008D01*
X8798634Y-13746008D02*
X8779587Y-13717436D01*
X8779587Y-13717436D02*
X8770063Y-13707912D01*
X9131968Y-14012674D02*
X9122444Y-14003150D01*
X9122444Y-14003150D02*
X9103396Y-13974579D01*
X9103396Y-13974579D02*
X9093873Y-13955531D01*
X9093873Y-13955531D02*
X9084349Y-13926960D01*
X9084349Y-13926960D02*
X9074825Y-13879341D01*
X9074825Y-13879341D02*
X9074825Y-13841246D01*
X9074825Y-13841246D02*
X9084349Y-13793627D01*
X9084349Y-13793627D02*
X9093873Y-13765055D01*
X9093873Y-13765055D02*
X9103396Y-13746008D01*
X9103396Y-13746008D02*
X9122444Y-13717436D01*
X9122444Y-13717436D02*
X9131968Y-13707912D01*
X9208158Y-13803150D02*
X9208158Y-13936484D01*
X9208158Y-13822198D02*
X9217682Y-13812674D01*
X9217682Y-13812674D02*
X9236730Y-13803150D01*
X9236730Y-13803150D02*
X9265301Y-13803150D01*
X9265301Y-13803150D02*
X9284349Y-13812674D01*
X9284349Y-13812674D02*
X9293873Y-13831722D01*
X9293873Y-13831722D02*
X9293873Y-13936484D01*
X9417682Y-13936484D02*
X9398634Y-13926960D01*
X9398634Y-13926960D02*
X9389111Y-13917436D01*
X9389111Y-13917436D02*
X9379587Y-13898388D01*
X9379587Y-13898388D02*
X9379587Y-13841246D01*
X9379587Y-13841246D02*
X9389111Y-13822198D01*
X9389111Y-13822198D02*
X9398634Y-13812674D01*
X9398634Y-13812674D02*
X9417682Y-13803150D01*
X9417682Y-13803150D02*
X9446254Y-13803150D01*
X9446254Y-13803150D02*
X9465301Y-13812674D01*
X9465301Y-13812674D02*
X9474825Y-13822198D01*
X9474825Y-13822198D02*
X9484349Y-13841246D01*
X9484349Y-13841246D02*
X9484349Y-13898388D01*
X9484349Y-13898388D02*
X9474825Y-13917436D01*
X9474825Y-13917436D02*
X9465301Y-13926960D01*
X9465301Y-13926960D02*
X9446254Y-13936484D01*
X9446254Y-13936484D02*
X9417682Y-13936484D01*
X9541492Y-13803150D02*
X9617682Y-13803150D01*
X9570063Y-13736484D02*
X9570063Y-13907912D01*
X9570063Y-13907912D02*
X9579587Y-13926960D01*
X9579587Y-13926960D02*
X9598634Y-13936484D01*
X9598634Y-13936484D02*
X9617682Y-13936484D01*
X9836730Y-13803150D02*
X9836730Y-14003150D01*
X9836730Y-13812674D02*
X9855777Y-13803150D01*
X9855777Y-13803150D02*
X9893873Y-13803150D01*
X9893873Y-13803150D02*
X9912920Y-13812674D01*
X9912920Y-13812674D02*
X9922444Y-13822198D01*
X9922444Y-13822198D02*
X9931968Y-13841246D01*
X9931968Y-13841246D02*
X9931968Y-13898388D01*
X9931968Y-13898388D02*
X9922444Y-13917436D01*
X9922444Y-13917436D02*
X9912920Y-13926960D01*
X9912920Y-13926960D02*
X9893873Y-13936484D01*
X9893873Y-13936484D02*
X9855777Y-13936484D01*
X9855777Y-13936484D02*
X9836730Y-13926960D01*
X10046254Y-13936484D02*
X10027206Y-13926960D01*
X10027206Y-13926960D02*
X10017682Y-13907912D01*
X10017682Y-13907912D02*
X10017682Y-13736484D01*
X10208158Y-13936484D02*
X10208158Y-13831722D01*
X10208158Y-13831722D02*
X10198635Y-13812674D01*
X10198635Y-13812674D02*
X10179587Y-13803150D01*
X10179587Y-13803150D02*
X10141492Y-13803150D01*
X10141492Y-13803150D02*
X10122444Y-13812674D01*
X10208158Y-13926960D02*
X10189111Y-13936484D01*
X10189111Y-13936484D02*
X10141492Y-13936484D01*
X10141492Y-13936484D02*
X10122444Y-13926960D01*
X10122444Y-13926960D02*
X10112920Y-13907912D01*
X10112920Y-13907912D02*
X10112920Y-13888865D01*
X10112920Y-13888865D02*
X10122444Y-13869817D01*
X10122444Y-13869817D02*
X10141492Y-13860293D01*
X10141492Y-13860293D02*
X10189111Y-13860293D01*
X10189111Y-13860293D02*
X10208158Y-13850769D01*
X10274825Y-13803150D02*
X10351015Y-13803150D01*
X10303396Y-13736484D02*
X10303396Y-13907912D01*
X10303396Y-13907912D02*
X10312920Y-13926960D01*
X10312920Y-13926960D02*
X10331968Y-13936484D01*
X10331968Y-13936484D02*
X10351015Y-13936484D01*
X10493873Y-13926960D02*
X10474825Y-13936484D01*
X10474825Y-13936484D02*
X10436730Y-13936484D01*
X10436730Y-13936484D02*
X10417682Y-13926960D01*
X10417682Y-13926960D02*
X10408158Y-13907912D01*
X10408158Y-13907912D02*
X10408158Y-13831722D01*
X10408158Y-13831722D02*
X10417682Y-13812674D01*
X10417682Y-13812674D02*
X10436730Y-13803150D01*
X10436730Y-13803150D02*
X10474825Y-13803150D01*
X10474825Y-13803150D02*
X10493873Y-13812674D01*
X10493873Y-13812674D02*
X10503396Y-13831722D01*
X10503396Y-13831722D02*
X10503396Y-13850769D01*
X10503396Y-13850769D02*
X10408158Y-13869817D01*
X10674825Y-13936484D02*
X10674825Y-13736484D01*
X10674825Y-13926960D02*
X10655777Y-13936484D01*
X10655777Y-13936484D02*
X10617682Y-13936484D01*
X10617682Y-13936484D02*
X10598635Y-13926960D01*
X10598635Y-13926960D02*
X10589111Y-13917436D01*
X10589111Y-13917436D02*
X10579587Y-13898388D01*
X10579587Y-13898388D02*
X10579587Y-13841246D01*
X10579587Y-13841246D02*
X10589111Y-13822198D01*
X10589111Y-13822198D02*
X10598635Y-13812674D01*
X10598635Y-13812674D02*
X10617682Y-13803150D01*
X10617682Y-13803150D02*
X10655777Y-13803150D01*
X10655777Y-13803150D02*
X10674825Y-13812674D01*
X10751016Y-14012674D02*
X10760539Y-14003150D01*
X10760539Y-14003150D02*
X10779587Y-13974579D01*
X10779587Y-13974579D02*
X10789111Y-13955531D01*
X10789111Y-13955531D02*
X10798635Y-13926960D01*
X10798635Y-13926960D02*
X10808158Y-13879341D01*
X10808158Y-13879341D02*
X10808158Y-13841246D01*
X10808158Y-13841246D02*
X10798635Y-13793627D01*
X10798635Y-13793627D02*
X10789111Y-13765055D01*
X10789111Y-13765055D02*
X10779587Y-13746008D01*
X10779587Y-13746008D02*
X10760539Y-13717436D01*
X10760539Y-13717436D02*
X10751016Y-13707912D01*
M02*
